<svg xmlns="http://www.w3.org/2000/svg" width="1400" height="720" viewBox="0 0 1400 720"><defs><linearGradient id="b" x1="0" y1="0" x2="1" y2="1"><stop stop-color="#0a0b12"/><stop offset="1" stop-color="#1b1631"/></linearGradient><linearGradient id="a"><stop stop-color="#a78bfa"/><stop offset="1" stop-color="#22d3ee"/></linearGradient></defs><rect width="1400" height="720" fill="url(#b)"/><circle cx="1150" cy="130" r="260" fill="#8b5cf6" opacity=".09"/><text x="90" y="100" fill="#a78bfa" font-family="Arial" font-size="20" font-weight="700" letter-spacing="5">01 / SAAS PLATFORM</text><text x="90" y="190" fill="white" font-family="Arial" font-size="76" font-weight="700">OPERON</text><text x="90" y="245" fill="#aeb5c2" font-family="Arial" font-size="28">Multi-tenant workflow infrastructure</text><g transform="translate(90 315)"><rect width="1220" height="290" rx="28" fill="#0d1018" stroke="#fff" stroke-opacity=".08"/><rect x="35" y="35" width="250" height="205" rx="16" fill="#151925"/><rect x="315" y="35" width="250" height="205" rx="16" fill="#151925"/><rect x="595" y="35" width="250" height="205" rx="16" fill="#151925"/><rect x="875" y="35" width="310" height="205" rx="16" fill="#151925"/><text x="65" y="80" fill="#64748b" font-family="Arial" font-size="17">TENANTS</text><text x="65" y="135" fill="white" font-family="Arial" font-size="42" font-weight="700">∞</text><text x="345" y="80" fill="#64748b" font-family="Arial" font-size="17">SECURITY</text><text x="345" y="130" fill="#c4b5fd" font-family="Arial" font-size="28">JWT / RBAC</text><text x="625" y="80" fill="#64748b" font-family="Arial" font-size="17">WORKFLOWS</text><text x="625" y="130" fill="#67e8f9" font-family="Arial" font-size="28">TASK → STATE</text><text x="905" y="80" fill="#64748b" font-family="Arial" font-size="17">STACK</text><text x="905" y="130" fill="white" font-family="Arial" font-size="22">Spring Boot 3</text><text x="905" y="165" fill="#94a3b8" font-family="Arial" font-size="20">Angular · PostgreSQL</text></g></svg>